<svg height="300" viewBox="0 -6 512 512" width="300" xmlns="http://www.w3.org/2000/svg" version="1.1" xmlns:xlink="http://www.w3.org/1999/xlink" xmlns:svgjs="http://svgjs.dev/svgjs"><g width="100%" height="100%" transform="matrix(-1,1.2246467991473532e-16,-1.2246467991473532e-16,-1,512,499.1201171875)"><path d="m24.769531 202.480469c15.507813 9.285156 34.277344 9.730469 50.210938 1.195312l163.960937-87.855469c10.679688-5.722656 23.4375-5.722656 34.117188 0l163.960937 87.855469c7.597657 4.070313 15.84375 6.097657 24.074219 6.097657 9.023438 0 18.027344-2.4375 26.136719-7.292969 15.511719-9.285157 24.769531-25.621094 24.769531-43.695313 0-18.804687-10.296875-36.007812-26.875-44.890625l-197.898438-106.035156c-19.550781-10.480469-42.902343-10.480469-62.453124 0l-197.898438 106.035156c-16.578125 8.882813-26.875 26.085938-26.875 44.890625 0 18.078125 9.257812 34.410156 24.769531 43.695313zm0 0" fill="#000000" fill-opacity="1" data-original-color="#000000ff" stroke="none" stroke-opacity="1"/><path d="m485.125 258.566406-197.898438-106.035156c-19.550781-10.476562-42.902343-10.476562-62.453124 0l-197.898438 106.035156c-16.578125 8.882813-26.875 26.085938-26.875 44.890625 0 18.078125 9.257812 34.410157 24.769531 43.695313 15.507813 9.285156 34.28125 9.730468 50.210938 1.195312l163.960937-87.855468c10.679688-5.722657 23.4375-5.722657 34.117188 0l163.960937 87.855468c7.597657 4.070313 15.84375 6.101563 24.074219 6.101563 9.023438 0 18.027344-2.441407 26.136719-7.296875 15.507812-9.285156 24.769531-25.617188 24.769531-43.695313 0-18.804687-10.296875-36.007812-26.875-44.890625zm0 0" fill="#000000" fill-opacity="1" data-original-color="#000000ff" stroke="none" stroke-opacity="1"/><path d="m485.125 403.238281-197.898438-106.039062c-19.550781-10.476563-42.902343-10.476563-62.453124 0l-197.898438 106.039062c-16.578125 8.882813-26.875 26.085938-26.875 44.890625 0 18.078125 9.257812 34.410156 24.769531 43.695313 15.507813 9.285156 34.28125 9.734375 50.210938 1.195312l163.960937-87.855469c10.679688-5.722656 23.4375-5.722656 34.117188 0l163.960937 87.855469c7.597657 4.070313 15.84375 6.101563 24.074219 6.101563 9.023438 0 18.027344-2.4375 26.136719-7.296875 15.511719-9.285157 24.769531-25.621094 24.769531-43.695313 0-18.804687-10.296875-36.007812-26.875-44.890625zm0 0" fill="#000000" fill-opacity="1" data-original-color="#000000ff" stroke="none" stroke-opacity="1"/></g></svg>