<svg id="Capa_1" enable-background="new 0 0 512.027 512.027" viewBox="0 0 512.027 512.027" xmlns="http://www.w3.org/2000/svg"><g><path d="m65.027 39.338v325.61h-24.34c-15.13 0-29.16 4.78-40.66 12.9v-292.9c0-29.47 18.283-51.895 46.97-60.96 9.076-2.868 18.03 5.42 18.03 15.35z"/><path d="m369.097 235.808c-7.02 7.02-16.28 11.7-26.08 13.17l-27.15 4.08c-2.3.35-4.64.52-6.96.52-13.44 0-26.19-5.85-34.97-16.04-8.78-10.2-12.66-23.7-10.65-37.06l4.08-27.15c1.48-9.8 6.15-19.06 13.18-26.08l92.87-92.88c-44.13 0-88.25-.01-132.39-.02-37.67-.01-108.33-.01-146-.02v325.62c0 8.29-6.72 15-15 15h-38.54c-22.81 0-41.92 18.67-41.48 41.48.42 22.1 18.47 39.89 40.68 39.89h139.16c2.15-5.21 5.34-10.06 9.5-14.22l58.03-58.04 220.43-220.42c4.07-4.08 8.93-7.28 14.22-9.45v-51.31zm-228.22-81.49h76.01c8.29 0 15 6.72 15 15s-6.71 15-15 15h-76.01c-8.28 0-15-6.72-15-15s6.72-15 15-15zm0 60h76.01c8.29 0 15 6.72 15 15s-6.71 15-15 15h-76.01c-8.28 0-15-6.72-15-15s6.72-15 15-15zm146.01 90h-146.01c-8.23 0-15-6.77-15-15s6.77-15 15-15h146.01c8.23 0 15 6.77 15 15s-6.77 15-15 15z"/><path d="m503.707 201.928c-5.02-2.09-10.84-.93-14.68 2.92l-220.43 220.43-58.04 58.03c-3.84 3.85-5 9.67-2.92 14.69s7.01 8.32 12.45 8.32h278.47c7.44 0 13.47-6.04 13.47-13.47v-278.47c0-5.45-3.29-10.37-8.32-12.45zm-45.57 237.02c0 7.44-6.04 13.47-13.48 13.47h-94.45c-5.45 0-10.37-3.29-12.45-8.32-2.09-5.02-.93-10.84 2.92-14.68l94.45-94.46c3.85-3.85 9.66-5 14.69-2.92 5.04 2.09 8.32 7 8.32 12.45z"/><path d="m505.823 33.409-22.886-22.886c-6.419-6.419-16.826-6.419-23.246 0l-35.219 35.219-122.716 122.718c-2.534 2.534-4.19 5.809-4.72 9.333l-4.081 27.146c-1.632 10.859 7.594 20.085 18.453 18.453l27.146-4.081c3.524-.53 6.799-2.186 9.333-4.72l122.718-122.717 35.219-35.219c6.418-6.419 6.418-16.827-.001-23.246z"/></g><g/><g/><g/><g/><g/><g/><g/><g/><g/><g/><g/><g/><g/><g/><g/></svg>