<?xml version="1.0" encoding="iso-8859-1"?>
<!-- Generator: Adobe Illustrator 19.0.0, SVG Export Plug-In . SVG Version: 6.00 Build 0)  -->
<svg version="1.1" id="Capa_1" xmlns="http://www.w3.org/2000/svg" xmlns:xlink="http://www.w3.org/1999/xlink" x="0px" y="0px"
	 viewBox="0 0 512 512" style="enable-background:new 0 0 512 512;" xml:space="preserve">
<g>
	<g>
		<circle cx="256" cy="58.74" r="58.74"/>
	</g>
</g>
<g>
	<g>
		<path d="M327.71,141.664H256h-71.71c-23.125,0-41.871,18.746-41.871,41.871v88.13v68.303c0,13.509,10.951,24.46,24.46,24.46
			c13.509,0,24.46-10.951,24.46-24.46V512H241V354.486h30V512h49.661V339.968c0,13.509,10.951,24.46,24.46,24.46
			c13.509,0,24.46-10.951,24.46-24.46v-68.303v-88.13C369.581,160.41,350.835,141.664,327.71,141.664z"/>
	</g>
</g>
<g>
	<g>
		<circle cx="105.85" cy="89.58" r="54.743"/>
	</g>
</g>
<g>
	<g>
		<path d="M112.418,339.968v-68.303v-88.13c0-2.399,0.124-4.77,0.354-7.109h-6.919H39.022C17.471,176.425,0,193.896,0,215.447
			v82.134v63.656c0,12.59,10.206,22.796,22.796,22.796c12.59,0,22.796-10.206,22.796-22.796V512h45.261V369.144h30V512h40.486
			V394.148C133.901,391.364,112.418,368.128,112.418,339.968z"/>
	</g>
</g>
<g>
	<g>
		<circle cx="406.15" cy="89.58" r="54.743"/>
	</g>
</g>
<g>
	<g>
		<path d="M472.978,176.425h-66.831h-6.919c0.231,2.339,0.354,4.71,0.354,7.109v88.13v68.303c0,28.16-21.483,51.397-48.921,54.181
			V512h40.486V369.144h30V512h45.261V361.237c0,12.59,10.206,22.796,22.796,22.796c12.59,0,22.796-10.206,22.796-22.796v-63.656
			v-82.134C512,193.896,494.529,176.425,472.978,176.425z"/>
	</g>
</g>
<g>
</g>
<g>
</g>
<g>
</g>
<g>
</g>
<g>
</g>
<g>
</g>
<g>
</g>
<g>
</g>
<g>
</g>
<g>
</g>
<g>
</g>
<g>
</g>
<g>
</g>
<g>
</g>
<g>
</g>
</svg>
