<svg id="Capa_1" enable-background="new 0 0 512 512" height="512" viewBox="0 0 512 512" width="512" xmlns="http://www.w3.org/2000/svg"><g><path d="m256 0c-26.74 0-51.12 10.24-69.45 27h138.9c-18.33-16.76-42.71-27-69.45-27z"/><path d="m199 135h114v50h-114z"/><path d="m256 343c70.03 0 127-56.97 127-127v-114c0-24.81-20.19-45-45-45h-164c-24.81 0-45 20.19-45 45v114c0 70.03 56.97 127 127 127zm-87-223c0-8.284 6.716-15 15-15h144c8.284 0 15 6.716 15 15v80c0 8.284-6.716 15-15 15h-144c-8.284 0-15-6.716-15-15z"/><path d="m167 345.253v62.747h178v-62.747c-25.314 17.484-55.977 27.747-89 27.747s-63.686-10.263-89-27.747z"/><path d="m362 438h-212c-8.271 0-15 6.729-15 15v59h242v-59c0-8.271-6.729-15-15-15z"/><path d="m433.1 314.88-42.61-17.94c-4.565 7.555-9.76 14.686-15.49 21.342v91.64c18.494 5.592 32 22.784 32 43.078v59h57c8.28 0 15-6.72 15-15v-113c0-30.25-18.02-57.38-45.9-69.12z"/><path d="m137 318.282c-5.73-6.657-10.925-13.787-15.49-21.342l-42.61 17.94c-27.88 11.74-45.9 38.87-45.9 69.12v113c0 8.28 6.72 15 15 15h57v-59c0-20.294 13.506-37.486 32-43.078z"/><path d="m88 207h11v-94h-11c-8.28 0-15 6.72-15 15v64c0 8.28 6.72 15 15 15z"/><path d="m439 192v-64c0-8.28-6.72-15-15-15h-11v94h11c8.28 0 15-6.72 15-15z"/></g></svg>