<svg width="122" height="123" viewBox="0 0 122 123" fill="none" xmlns="http://www.w3.org/2000/svg">
<g clip-path="url(#clip0_115_238)">
<mask id="mask0_115_238" style="mask-type:luminance" maskUnits="userSpaceOnUse" x="-188" y="-255" width="500" height="801">
<path d="M-188 -254.25H312V545.75H-188V-254.25Z" fill="white"/>
</mask>
<g mask="url(#mask0_115_238)">
<path d="M17.8056 72.6311L26.9192 58.9801L38.5177 55.7945L42.6894 47.6455L50.5486 41.354L50.6522 51.0625L53.4003 41.5187L58.6377 32.0233L65.62 37.4141L74.3321 43.1291L83.2696 49.269L114.577 80.5069L117.012 80.3239C117.012 49.0808 91.8769 23.7527 60.8719 23.7527C29.8668 23.7527 4.73236 49.0808 4.73236 80.3239C4.73236 83.1749 4.94133 85.9749 5.34537 88.7122L6.96847 88.5906L17.8056 72.6311Z" fill="#DCA832"/>
<path d="M83.6859 47.5027L74.6234 41.2595L65.9561 35.5772L58.4441 29.7759L52.6683 40.2478L51.5313 44.1981L51.4707 38.5171L42.1796 45.955L38.095 53.9328L26.5628 57.1014L17.2617 71.0334L6.25918 87.1445C5.95236 84.785 5.78822 82.3863 5.78822 79.9981C5.78822 49.5249 30.4991 24.7341 60.8715 24.7341C90.8393 24.7341 115.291 48.8674 115.94 78.7811L83.6859 47.5027ZM95.6765 75.7968L82.2219 53.619L74.0281 44.9837L74.0388 44.9903L82.9183 51.0896L91.5818 59.7628L102.313 73.1014L95.6765 75.7968ZM117.216 79.9981C117.216 48.0831 91.9404 22.1197 60.8715 22.1197C29.8034 22.1197 4.52686 48.0831 4.52686 79.9981C4.52686 82.9341 4.74087 85.8844 5.16195 88.7654L5.8583 90.819L27.2705 99.3759L23.9353 70.589L26.0351 62.7314L27.2851 60.8582L38.2819 57.8373L30.8873 101.7L46.4303 93.0216L46.1007 51.1759L49.1967 44.5432L49.6367 44.1903L49.7832 57.9275L50.7806 54.4648L50.7996 56.3563L48.321 72.3145L52.4101 71.1223L54.0269 65.6269L59.054 64.7864L62.3116 45.7772L59.4113 34.7079L63.8791 38.1563L79.9429 57.1105L98.2882 88.2334L104.679 94.1158L115.283 83.4909L117.216 79.9981Z" fill="#494A4D"/>
</g>
</g>
<defs>
<clipPath id="clip0_115_238">
<rect width="120" height="86" fill="white" transform="translate(1 18.75)"/>
</clipPath>
</defs>
</svg>
