<svg width="220" height="76" viewBox="0 0 220 76" fill="none" xmlns="http://www.w3.org/2000/svg">
<g clip-path="url(#clip0_108_242)">
<rect width="220" height="75" transform="translate(0 0.86499)" fill="white"/>
<g clip-path="url(#clip1_108_242)">
<mask id="mask0_108_242" style="mask-type:luminance" maskUnits="userSpaceOnUse" x="-149" y="-134" width="518" height="400">
<path d="M-149 -134H368.073V266H-149V-134Z" fill="white"/>
</mask>
<g mask="url(#mask0_108_242)">
<path d="M63.8331 29.4404L73.2579 22.6149L85.2525 21.0221L89.5666 16.9476L97.6942 13.8019L97.8013 18.6561L100.643 13.8842L106.059 9.13651L113.28 11.8319L122.29 14.6895L131.532 17.7594L163.909 33.3783L166.427 33.2868C166.427 17.6653 140.434 5.00122 108.37 5.00122C76.3062 5.00122 50.3135 17.6653 50.3135 33.2868C50.3135 34.7123 50.5296 36.1123 50.9474 37.481L52.6259 37.4202L63.8331 29.4404Z" fill="#DCA832"/>
<path d="M131.963 16.8763L122.591 13.7547L113.628 10.9135L105.859 8.01288L99.8862 13.2488L98.7104 15.224L98.6477 12.3835L89.0394 16.1024L84.8154 20.0913L72.8894 21.6756L63.2706 28.6416L51.8924 36.6972C51.5751 35.5175 51.4054 34.3181 51.4054 33.124C51.4054 17.8874 76.96 5.49197 108.37 5.49197C139.361 5.49197 164.648 17.5586 165.318 32.5155L131.963 16.8763ZM144.363 31.0233L130.449 19.9345L121.975 15.6168L121.987 15.6201L131.169 18.6697L140.128 23.0063L151.227 29.6756L144.363 31.0233ZM166.638 33.124C166.638 17.1665 140.499 4.18478 108.37 4.18478C76.2406 4.18478 50.101 17.1665 50.101 33.124C50.101 34.592 50.3223 36.0671 50.7577 37.5077L51.4779 38.5345L73.6213 42.8129L70.1721 28.4194L72.3436 24.4907L73.6363 23.5541L85.0086 22.0436L77.3615 43.975L93.4352 39.6358L93.0944 18.7129L96.2961 15.3965L96.7511 15.2201L96.9026 22.0887L97.9341 20.3573L97.9537 21.3031L95.3906 29.2822L99.6192 28.6861L101.291 25.9384L106.49 25.5181L109.859 16.0135L106.86 10.4789L111.48 12.2031L128.092 21.6802L147.064 37.2416L153.673 40.1828L164.639 34.8704L166.638 33.124Z" fill="#494A4D"/>
<path d="M18.0481 47.0537V56.5518C18.0481 60.157 16.2174 60.889 11.7831 60.889C7.8385 60.889 5.31189 60.5413 5.31189 57.3753V55.3988H8.86938V56.4237C8.86938 58.2171 8.86938 58.6381 11.7831 58.6381C14.0003 58.6381 14.3352 58.2354 14.3352 56.5518V47.0537H18.0481Z" fill="#494A4D"/>
<path d="M24.9848 52.6539H26.7123L33.1574 47.0539H37.721L29.8833 53.752L38.5194 60.7794H33.8279L26.7123 54.9043H24.9848V60.7794H21.2719V47.0539H24.9848V52.6539Z" fill="#494A4D"/>
<path d="M55.7437 47.0537L49.5042 60.7792H43.9098L37.7219 47.0537H41.5124L46.6688 58.5831H46.7465L51.9022 47.0537H55.7437Z" fill="#494A4D"/>
<path d="M62.3712 53.8979H71.0857V55.0515H62.3712V59.5894H71.4722V60.7789H60.4374V48.573H71.4722V49.7626H62.3712V53.8979Z" fill="#494A4D"/>
<path d="M88.6441 60.7792H85.4731L78.2537 52.4707L77.0942 51.0981L76.5007 50.421L75.9334 49.7439H75.8818L75.9079 50.2014V50.6589V51.5739V60.7792H73.9741V48.5726H77.1458L83.4101 55.8563L85.0605 57.7596L85.8851 58.7112L86.6848 59.6628H86.7358L86.7103 59.2053V58.7478V57.8328V48.5726H88.6441V60.7792Z" fill="#494A4D"/>
<path d="M105.584 54.7219C105.636 55.2336 105.636 55.2885 105.636 56.0395C105.636 58.2722 105.533 58.8944 104.992 59.5532C104.579 60.1016 103.883 60.4683 102.904 60.6879C102.207 60.8343 100.814 60.9075 98.6489 60.9075C95.2716 60.9075 94.0605 60.7245 92.8482 60.0107C92.0752 59.5532 91.5072 58.5826 91.4301 57.5585C91.4047 57.0094 91.4047 56.8996 91.3785 54.5199V54.0075C91.3785 51.812 91.5855 50.8787 92.2038 49.982C92.7711 49.1951 93.7504 48.7375 95.22 48.5539C95.7874 48.4807 96.8959 48.4447 98.4687 48.4447C102.336 48.4447 103.006 48.5179 104.192 49.048C104.836 49.3415 105.326 49.9088 105.481 50.531C105.559 50.9702 105.584 51.2081 105.584 52.1225H103.677C103.651 49.7624 103.367 49.6343 98.2108 49.6343C95.2461 49.6343 94.2923 49.8349 93.802 50.6036C93.4155 51.2081 93.3123 52.0127 93.3123 54.5022C93.3123 57.6859 93.3639 58.1624 93.7765 58.7656C94.3178 59.5343 95.3748 59.7362 98.959 59.7362C103.341 59.7362 103.702 59.4983 103.702 56.6245C103.702 56.497 103.702 56.2225 103.677 55.9107H98.2108V54.7219H105.584Z" fill="#494A4D"/>
<path d="M110.175 60.7791H108.241V48.5725H110.175V60.7791Z" fill="#494A4D"/>
<path d="M128.093 60.7792H124.922L117.703 52.4707L116.543 51.0981L115.95 50.421L115.383 49.7439H115.331L115.357 50.2014V50.6589V51.5739V60.7792H113.423V48.5726H116.595L122.859 55.8563L124.509 57.7596L125.334 58.7112L126.134 59.6628H126.185L126.159 59.2053V58.7478V57.8328V48.5726H128.093V60.7792Z" fill="#494A4D"/>
<path d="M133.303 53.8979H142.017V55.0515H133.303V59.5894H142.404V60.7789H131.369V48.573H142.404V49.7626H133.303V53.8979Z" fill="#494A4D"/>
<path d="M146.839 53.8979H155.554V55.0515H146.839V59.5894H155.94V60.7789H144.906V48.573H155.94V49.7626H146.839V53.8979Z" fill="#494A4D"/>
<path d="M165.97 54.6849C168.806 54.6849 169.709 54.1542 169.709 52.5072C169.709 51.2444 169.605 50.7137 169.245 50.3666C168.858 49.9634 168.007 49.7627 166.64 49.7627H160.376V54.6849H165.97ZM158.442 48.5725H166.615C170.302 48.5725 171.643 49.5058 171.643 52.0862C171.643 54.3006 170.971 55.0326 168.677 55.3072V55.3255C170.456 55.3987 171.436 56.2405 171.41 57.6862V60.7791H169.476V57.9974C169.528 56.4418 168.548 55.8196 166.228 55.8745H160.376V60.7791H158.442V48.5725Z" fill="#494A4D"/>
<path d="M176.31 60.7791H174.376V48.5725H176.31V60.7791Z" fill="#494A4D"/>
<path d="M194.229 60.7792H191.058L183.838 52.4707L182.679 51.0981L182.085 50.421L181.518 49.7439H181.466L181.493 50.2014V50.6589V51.5739V60.7792H179.559V48.5726H182.73L188.995 55.8563L190.645 57.7596L191.47 58.7112L192.269 59.6628H192.32L192.295 59.2053V58.7478V57.8328V48.5726H194.229V60.7792Z" fill="#494A4D"/>
<path d="M211.169 54.7219C211.22 55.2336 211.22 55.2885 211.22 56.0395C211.22 58.2722 211.117 58.8944 210.576 59.5532C210.163 60.1016 209.467 60.4683 208.488 60.6879C207.792 60.8343 206.399 60.9075 204.233 60.9075C200.856 60.9075 199.645 60.7245 198.433 60.0107C197.66 59.5532 197.092 58.5826 197.015 57.5585C196.989 57.0094 196.989 56.8996 196.963 54.5199V54.0075C196.963 51.812 197.17 50.8787 197.788 49.982C198.356 49.1951 199.335 48.7375 200.805 48.5539C201.372 48.4807 202.48 48.4447 204.053 48.4447C207.92 48.4447 208.591 48.5179 209.777 49.048C210.421 49.3415 210.911 49.9088 211.066 50.531C211.143 50.9702 211.169 51.2081 211.169 52.1225H209.261C209.235 49.7624 208.952 49.6343 203.795 49.6343C200.831 49.6343 199.877 49.8349 199.387 50.6036C199 51.2081 198.897 52.0127 198.897 54.5022C198.897 57.6859 198.948 58.1624 199.361 58.7656C199.902 59.5343 200.959 59.7362 204.544 59.7362C208.926 59.7362 209.287 59.4983 209.287 56.6245C209.287 56.497 209.287 56.2225 209.261 55.9107H203.795V54.7219H211.169Z" fill="#494A4D"/>
<path d="M57.0908 70.422C58.8177 70.422 59.0971 70.2605 59.0971 69.2475C59.0971 68.4677 58.9809 68.1716 58.6192 68.0455C58.3855 67.9651 58.2921 67.9566 57.3709 67.9475H55.0141V70.422H57.0908ZM54.1392 67.3645H57.3944C58.3972 67.3645 58.6773 67.3913 59.0273 67.5076C59.6684 67.7233 59.972 68.2605 59.972 69.2109C59.972 70.1082 59.6808 70.6102 59.0273 70.852C58.6656 70.9867 58.6068 70.9867 57.2658 71.005H55.0141V73.3448H54.1392V67.3645Z" fill="#494A4D"/>
<path d="M61.8988 69.9732H65.8415V70.5379H61.8988V72.7621H66.0171V73.3445H61.0239V67.3647H66.0171V67.9471H61.8988V69.9732Z" fill="#494A4D"/>
<path d="M70.2535 67.9116L68.5508 71.543H71.9803L70.2535 67.9116ZM68.3053 72.0803L67.7099 73.345H66.7769L69.6234 67.3646H70.86L73.7646 73.345H72.8434L72.2362 72.0803H68.3053Z" fill="#494A4D"/>
<path d="M75.435 69.9822H76.2054L79.3901 67.3646H80.5332L76.9744 70.2692L80.9524 73.345H79.7628L76.2054 70.5835H75.435V73.345H74.5601V67.3646H75.435V69.9822Z" fill="#494A4D"/>
<path d="M87.4653 70.422C89.1921 70.422 89.4716 70.2605 89.4716 69.2475C89.4716 68.4677 89.3554 68.1716 88.9937 68.0455C88.7599 67.9651 88.6666 67.9566 87.7454 67.9475H85.3885V70.422H87.4653ZM84.5137 67.3645H87.7689C88.7717 67.3645 89.0518 67.3913 89.4017 67.5076C90.0428 67.7233 90.3464 68.2605 90.3464 69.2109C90.3464 70.1082 90.0552 70.6102 89.4017 70.852C89.04 70.9867 88.9813 70.9867 87.6403 71.005H85.3885V73.3448H84.5137V67.3645Z" fill="#494A4D"/>
<path d="M92.2732 69.9732H96.2158V70.5379H92.2732V72.7621H96.3915V73.3445H91.3983V67.3647H96.3915V67.9471H92.2732V69.9732Z" fill="#494A4D"/>
<path d="M100.931 70.3587C102.214 70.3587 102.622 70.0993 102.622 69.2921C102.622 68.6738 102.576 68.413 102.413 68.2431C102.238 68.0457 101.853 67.9476 101.234 67.9476H98.3996V70.3587H100.931ZM97.5247 67.3646H101.223C102.891 67.3646 103.498 67.8215 103.498 69.0862C103.498 70.1705 103.194 70.5293 102.156 70.664V70.6725C102.961 70.7084 103.404 71.1208 103.393 71.8293V73.3444H102.518V71.9816C102.541 71.2195 102.097 70.9149 101.048 70.9417H98.3996V73.3444H97.5247V67.3646Z" fill="#494A4D"/>
<path d="M105.611 70.0275H109.402V70.5922H105.611V73.3445H104.736V67.3647H109.507V67.9471H105.611V70.0275Z" fill="#494A4D"/>
<path d="M111.632 68.1714C111.399 68.3773 111.293 68.6466 111.247 69.1485C111.235 69.274 111.235 69.274 111.235 70.3498C111.235 71.5877 111.235 71.5877 111.305 71.9283C111.387 72.3407 111.596 72.5917 111.959 72.6995C112.273 72.7975 112.6 72.8243 113.638 72.8243C115.062 72.8243 115.446 72.7707 115.715 72.5381C115.948 72.3315 116.053 72.0623 116.1 71.5609C116.111 71.4348 116.111 71.4348 116.111 70.3498C116.111 69.1217 116.111 69.1217 116.042 68.7812C115.96 68.3688 115.75 68.1178 115.388 68.01C115.073 67.9119 114.735 67.8845 113.708 67.8845C112.285 67.8845 111.9 67.9387 111.632 68.1714ZM115.785 67.4989C116.45 67.7145 116.8 68.1538 116.94 68.9243C116.975 69.193 116.987 69.3368 116.987 70.0989C116.987 71.4975 116.975 71.7034 116.846 72.1609C116.706 72.6904 116.368 73.0309 115.808 73.21C115.318 73.3714 114.921 73.4073 113.778 73.4073C112.413 73.4073 112.04 73.3714 111.538 73.21C110.979 73.0217 110.652 72.6904 110.501 72.1609C110.372 71.6949 110.361 71.4975 110.361 70.108C110.361 68.8623 110.43 68.5119 110.746 68.0544C111.002 67.6956 111.457 67.4629 112.11 67.3649C112.39 67.3289 112.997 67.3015 113.673 67.3015C114.863 67.3015 115.33 67.3466 115.785 67.4989Z" fill="#494A4D"/>
<path d="M121.666 70.3587C122.95 70.3587 123.358 70.0993 123.358 69.2921C123.358 68.6738 123.312 68.413 123.148 68.2431C122.973 68.0457 122.588 67.9476 121.97 67.9476H119.135V70.3587H121.666ZM118.26 67.3646H121.958C123.626 67.3646 124.233 67.8215 124.233 69.0862C124.233 70.1705 123.93 70.5293 122.892 70.664V70.6725C123.696 70.7084 124.139 71.1208 124.128 71.8293V73.3444H123.253V71.9816C123.276 71.2195 122.833 70.9149 121.783 70.9417H119.135V73.3444H118.26V67.3646Z" fill="#494A4D"/>
<path d="M133.999 73.3446H133.124V68.557V68.1982V68.0191L133.136 67.8394H133.113C133.078 67.9296 133.042 67.9923 133.007 68.0636C132.961 68.1446 132.95 68.1623 132.833 68.3956L130.185 73.3446H129.298L126.65 68.4577L126.499 68.1806L126.428 68.0368L126.358 67.9028H126.335L126.347 68.0636V68.2341V68.557V73.3446H125.472V67.3649H126.988L129.064 71.2374L129.391 71.8564L129.555 72.1701L129.718 72.4838H129.741L129.905 72.1701L130.069 71.8564L130.395 71.2374L132.46 67.3649H133.999V73.3446Z" fill="#494A4D"/>
<path d="M138.411 67.9116L136.709 71.543H140.138L138.411 67.9116ZM136.463 72.0803L135.868 73.345H134.935L137.781 67.3646H139.018L141.923 73.345H141.001L140.394 72.0803H136.463Z" fill="#494A4D"/>
<path d="M149.356 73.3446H147.921L144.655 69.274L144.13 68.6015L143.861 68.2694L143.604 67.9387H143.581L143.593 68.1623V68.3864V68.8348V73.3446H142.718V67.3649H144.153L146.987 70.9328L147.734 71.8649L148.108 72.3315L148.469 72.7975H148.493L148.48 72.5734V72.3498V71.9008V67.3649H149.356V73.3446Z" fill="#494A4D"/>
<path d="M156.87 71.3455C156.87 72.4122 156.824 72.6272 156.498 72.941C156.182 73.2455 155.646 73.3717 154.643 73.3985C154.351 73.407 153.884 73.407 153.476 73.407C152.379 73.407 151.936 73.3357 151.446 73.0848C151.085 72.8965 150.805 72.5024 150.723 72.071C150.653 71.7129 150.595 70.9782 150.595 70.3586C150.595 69.0501 150.595 68.9155 150.677 68.5835C150.805 67.9743 151.399 67.5174 152.251 67.3913C152.683 67.3285 153.196 67.3018 154.246 67.3018C155.226 67.3018 155.587 67.3469 155.984 67.5174C156.392 67.6867 156.661 68.037 156.72 68.4678C156.742 68.6553 156.754 68.7717 156.777 69.1933H155.903C155.891 68.5567 155.856 68.3776 155.715 68.1893C155.518 67.9475 155.179 67.875 154.222 67.875C153.137 67.875 152.438 67.9207 152.158 68.0096C151.668 68.1802 151.516 68.5031 151.516 69.4266C151.516 72.7978 151.528 72.8246 153.674 72.8246C155.774 72.8246 156.008 72.7083 156.008 71.6861V71.3455H156.87Z" fill="#494A4D"/>
<path d="M158.821 69.9732H162.763V70.5379H158.821V72.7621H162.939V73.3445H157.946V67.3647H162.939V67.9471H158.821V69.9732Z" fill="#494A4D"/>
</g>
</g>
</g>
<defs>
<clipPath id="clip0_108_242">
<rect width="220" height="75" fill="white" transform="translate(0 0.86499)"/>
</clipPath>
<clipPath id="clip1_108_242">
<rect width="517.073" height="400" fill="white" transform="translate(-149 -134)"/>
</clipPath>
</defs>
</svg>
